{
	"asset":{
		"version":"2.0",
		"generator":"Houdini GLTF 2.0 Exporter"
	},
	"animations":[
		{
			"channels":[
				{
					"target":{
						"node":0,
						"path":"weights"
					},
					"sampler":0
				}
			],
			"samplers":[
				{
					"input":23,
					"interpolation":"LINEAR",
					"output":22
				}
			]
		}
	],
	"accessors":[
		{
			"bufferView":0,
			"componentType":5123,
			"count":1128,
			"type":"SCALAR",
			"min":[0
			],
			"max":[239
			]
		},
		{
			"bufferView":1,
			"componentType":5126,
			"count":240,
			"type":"VEC3",
			"min":[-1.55343437,0,-0.5
			],
			"max":[0.5,6,1.95195758
			]
		},
		{
			"bufferView":2,
			"componentType":5126,
			"count":240,
			"type":"VEC2",
			"min":[-1.05343437,0
			],
			"max":[1,1
			]
		},
		{
			"bufferView":3,
			"componentType":5126,
			"count":240,
			"type":"VEC3",
			"min":[0,-0.0312728882,0
			],
			"max":[0,0,0
			]
		},
		{
			"bufferView":4,
			"componentType":5126,
			"count":240,
			"type":"VEC3",
			"min":[0,-0.120542526,0
			],
			"max":[0,0,0
			]
		},
		{
			"bufferView":5,
			"componentType":5126,
			"count":240,
			"type":"VEC3",
			"min":[0,-0.260985374,0
			],
			"max":[0,0,0
			]
		},
		{
			"bufferView":6,
			"componentType":5126,
			"count":240,
			"type":"VEC3",
			"min":[0,-0.445779324,0
			],
			"max":[0,0,0
			]
		},
		{
			"bufferView":7,
			"componentType":5126,
			"count":240,
			"type":"VEC3",
			"min":[0,-0.668100357,0
			],
			"max":[0,0,0
			]
		},
		{
			"bufferView":8,
			"componentType":5126,
			"count":240,
			"type":"VEC3",
			"min":[0,-0.921125412,0
			],
			"max":[0,0,0
			]
		},
		{
			"bufferView":9,
			"componentType":5126,
			"count":240,
			"type":"VEC3",
			"min":[0,-1.1980319,0
			],
			"max":[0,0,0
			]
		},
		{
			"bufferView":10,
			"componentType":5126,
			"count":240,
			"type":"VEC3",
			"min":[0,-1.49199581,0
			],
			"max":[0,0,0
			]
		},
		{
			"bufferView":11,
			"componentType":5126,
			"count":240,
			"type":"VEC3",
			"min":[0,-1.79619503,0
			],
			"max":[0,0,0
			]
		},
		{
			"bufferView":12,
			"componentType":5126,
			"count":240,
			"type":"VEC3",
			"min":[0,-2.10380554,0
			],
			"max":[0,0,0
			]
		},
		{
			"bufferView":13,
			"componentType":5126,
			"count":240,
			"type":"VEC3",
			"min":[0,-2.40800428,0
			],
			"max":[0,0,0
			]
		},
		{
			"bufferView":14,
			"componentType":5126,
			"count":240,
			"type":"VEC3",
			"min":[0,-2.70196843,0
			],
			"max":[0,0,0
			]
		},
		{
			"bufferView":15,
			"componentType":5126,
			"count":240,
			"type":"VEC3",
			"min":[0,-2.97887468,0
			],
			"max":[0,0,0
			]
		},
		{
			"bufferView":16,
			"componentType":5126,
			"count":240,
			"type":"VEC3",
			"min":[0,-3.23189998,0
			],
			"max":[0,0,0
			]
		},
		{
			"bufferView":17,
			"componentType":5126,
			"count":240,
			"type":"VEC3",
			"min":[0,-3.45422101,0
			],
			"max":[0,0,0
			]
		},
		{
			"bufferView":18,
			"componentType":5126,
			"count":240,
			"type":"VEC3",
			"min":[0,-3.63901472,0
			],
			"max":[0,0,0
			]
		},
		{
			"bufferView":19,
			"componentType":5126,
			"count":240,
			"type":"VEC3",
			"min":[0,-3.77945805,0
			],
			"max":[0,0,0
			]
		},
		{
			"bufferView":20,
			"componentType":5126,
			"count":240,
			"type":"VEC3",
			"min":[0,-3.86872745,0
			],
			"max":[0,0,0
			]
		},
		{
			"bufferView":21,
			"componentType":5126,
			"count":240,
			"type":"VEC3",
			"min":[0,-3.90000033,0
			],
			"max":[0,0,0
			]
		},
		{
			"componentType":5126,
			"count":380,
			"type":"SCALAR",
			"sparse":{
				"count":19,
				"values":{
					"bufferView":23
				},
				"indices":{
					"bufferView":22,
					"componentType":5125
				}
			},
			"min":[0
			],
			"max":[1
			]
		},
		{
			"bufferView":24,
			"componentType":5126,
			"count":20,
			"type":"SCALAR",
			"min":[0
			],
			"max":[0.633333325
			]
		}
	],
	"buffers":[
		{
			"uri":"test_01_data.bin",
			"byteLength":62008,
			"name":"main_buffer"
		}
	],
	"bufferViews":[
		{
			"buffer":0,
			"byteLength":2256,
			"target":34963
		},
		{
			"buffer":0,
			"byteOffset":2256,
			"byteLength":2880,
			"target":34962
		},
		{
			"buffer":0,
			"byteOffset":5136,
			"byteLength":1920,
			"target":34962
		},
		{
			"buffer":0,
			"byteOffset":7056,
			"byteLength":2880,
			"target":34962
		},
		{
			"buffer":0,
			"byteOffset":9936,
			"byteLength":2880,
			"target":34962
		},
		{
			"buffer":0,
			"byteOffset":12816,
			"byteLength":2880,
			"target":34962
		},
		{
			"buffer":0,
			"byteOffset":15696,
			"byteLength":2880,
			"target":34962
		},
		{
			"buffer":0,
			"byteOffset":18576,
			"byteLength":2880,
			"target":34962
		},
		{
			"buffer":0,
			"byteOffset":21456,
			"byteLength":2880,
			"target":34962
		},
		{
			"buffer":0,
			"byteOffset":24336,
			"byteLength":2880,
			"target":34962
		},
		{
			"buffer":0,
			"byteOffset":27216,
			"byteLength":2880,
			"target":34962
		},
		{
			"buffer":0,
			"byteOffset":30096,
			"byteLength":2880,
			"target":34962
		},
		{
			"buffer":0,
			"byteOffset":32976,
			"byteLength":2880,
			"target":34962
		},
		{
			"buffer":0,
			"byteOffset":35856,
			"byteLength":2880,
			"target":34962
		},
		{
			"buffer":0,
			"byteOffset":38736,
			"byteLength":2880,
			"target":34962
		},
		{
			"buffer":0,
			"byteOffset":41616,
			"byteLength":2880,
			"target":34962
		},
		{
			"buffer":0,
			"byteOffset":44496,
			"byteLength":2880,
			"target":34962
		},
		{
			"buffer":0,
			"byteOffset":47376,
			"byteLength":2880,
			"target":34962
		},
		{
			"buffer":0,
			"byteOffset":50256,
			"byteLength":2880,
			"target":34962
		},
		{
			"buffer":0,
			"byteOffset":53136,
			"byteLength":2880,
			"target":34962
		},
		{
			"buffer":0,
			"byteOffset":56016,
			"byteLength":2880,
			"target":34962
		},
		{
			"buffer":0,
			"byteOffset":58896,
			"byteLength":2880,
			"target":34962
		},
		{
			"buffer":0,
			"byteOffset":61776,
			"byteLength":76
		},
		{
			"buffer":0,
			"byteOffset":61852,
			"byteLength":76
		},
		{
			"buffer":0,
			"byteOffset":61928,
			"byteLength":80
		}
	],
	"nodes":[
		{
			"name":"Graf",
			"mesh":0
		}
	],
	"meshes":[
		{
			"primitives":[
				{
					"attributes":{
						"TEXCOORD_0":2,
						"POSITION":1
					},
					"indices":0,
					"material":0,
					"targets":[
						{
							"POSITION":3
						},
						{
							"POSITION":4
						},
						{
							"POSITION":5
						},
						{
							"POSITION":6
						},
						{
							"POSITION":7
						},
						{
							"POSITION":8
						},
						{
							"POSITION":9
						},
						{
							"POSITION":10
						},
						{
							"POSITION":11
						},
						{
							"POSITION":12
						},
						{
							"POSITION":13
						},
						{
							"POSITION":14
						},
						{
							"POSITION":15
						},
						{
							"POSITION":16
						},
						{
							"POSITION":17
						},
						{
							"POSITION":18
						},
						{
							"POSITION":19
						},
						{
							"POSITION":20
						},
						{
							"POSITION":21
						}
					]
				}
			],
			"name":"material3",
			"extras":{
				"targetNames":["","","","","","","","","","","","","","","","","","",""
				]
			}
		}
	],
	"materials":[
		{
			"name":"white",
			"pbrMetallicRoughness":{
				"metallicFactor":0,
				"roughnessFactor":0.5
			}
		}
	],
	"scenes":[
		{
			"nodes":[0
			]
		}
	],
	"scene":0
}
