{
	"asset":{
		"version":"2.0",
		"generator":"Houdini GLTF 2.0 Exporter"
	},
	"animations":[
		{
			"channels":[
				{
					"target":{
						"node":0,
						"path":"weights"
					},
					"sampler":0
				}
			],
			"samplers":[
				{
					"input":53,
					"interpolation":"LINEAR",
					"output":52
				}
			]
		}
	],
	"accessors":[
		{
			"bufferView":0,
			"componentType":5123,
			"count":10476,
			"type":"SCALAR",
			"min":[0
			],
			"max":[1751
			]
		},
		{
			"bufferView":1,
			"componentType":5126,
			"count":1752,
			"type":"VEC3",
			"min":[-17.0438175,-10.27176,0
			],
			"max":[17.0438213,16.2556858,5
			]
		},
		{
			"bufferView":2,
			"componentType":5126,
			"count":1752,
			"type":"VEC2",
			"min":[-1.54754448,0.257214189
			],
			"max":[2.49656296,0.963142753
			]
		},
		{
			"bufferView":3,
			"componentType":5126,
			"count":1752,
			"type":"VEC3",
			"min":[-7.98155546,-14.0670567,-6.36585236
			],
			"max":[7.84992409,14.0670567,6.36585331
			]
		},
		{
			"bufferView":4,
			"componentType":5126,
			"count":1752,
			"type":"VEC3",
			"min":[-9.23512268,-14.0670567,-7.66141987
			],
			"max":[9.23512363,14.0670567,7.66142082
			]
		},
		{
			"bufferView":5,
			"componentType":5126,
			"count":1752,
			"type":"VEC3",
			"min":[-9.80083466,-14.0670567,-6.2565856
			],
			"max":[9.80083656,14.0670567,6.25658512
			]
		},
		{
			"bufferView":6,
			"componentType":5126,
			"count":1752,
			"type":"VEC3",
			"min":[-9.7531929,-14.0670567,-6.07425499
			],
			"max":[9.7531929,14.0670567,6.07425451
			]
		},
		{
			"bufferView":7,
			"componentType":5126,
			"count":1752,
			"type":"VEC3",
			"min":[-9.65705872,-10.5774994,-7.43637133
			],
			"max":[9.65705872,6.65688419,7.43637133
			]
		},
		{
			"bufferView":8,
			"componentType":5126,
			"count":1752,
			"type":"VEC3",
			"min":[-8.53102112,-14.0670567,-7.63685751
			],
			"max":[8.53102112,14.0670567,7.63685608
			]
		},
		{
			"bufferView":9,
			"componentType":5126,
			"count":1752,
			"type":"VEC3",
			"min":[-7.19135427,-14.0670567,-6.94983196
			],
			"max":[7.19135666,14.0670567,6.94983196
			]
		},
		{
			"bufferView":10,
			"componentType":5126,
			"count":1752,
			"type":"VEC3",
			"min":[-8.56215096,-14.0670567,-5.74289227
			],
			"max":[8.56215096,14.0670567,5.7428937
			]
		},
		{
			"bufferView":11,
			"componentType":5126,
			"count":1752,
			"type":"VEC3",
			"min":[-3.43275547,-9.98532581,-4.31752777
			],
			"max":[3.43275452,0.0545628071,4.3175292
			]
		},
		{
			"bufferView":12,
			"componentType":5126,
			"count":1752,
			"type":"VEC3",
			"min":[-8.12385941,-15.300684,-6.23202372
			],
			"max":[8.12385941,19.1014175,6.23202324
			]
		},
		{
			"bufferView":13,
			"componentType":5126,
			"count":1752,
			"type":"VEC3",
			"min":[-9.18653107,-15.300684,-7.67020464
			],
			"max":[9.18653107,19.1014175,7.67020464
			]
		},
		{
			"bufferView":14,
			"componentType":5126,
			"count":1752,
			"type":"VEC3",
			"min":[-9.81121731,-19.1787605,-6.30288553
			],
			"max":[9.81121635,19.1787605,6.30288506
			]
		},
		{
			"bufferView":15,
			"componentType":5126,
			"count":1752,
			"type":"VEC3",
			"min":[-9.73394871,-19.1787605,-6.00975752
			],
			"max":[9.73394966,19.1787605,6.00975704
			]
		},
		{
			"bufferView":16,
			"componentType":5126,
			"count":1752,
			"type":"VEC3",
			"min":[-9.69570065,0,-7.38990927
			],
			"max":[9.6957016,0,7.38990974
			]
		},
		{
			"bufferView":17,
			"componentType":5126,
			"count":1752,
			"type":"VEC3",
			"min":[-8.67665958,-15.300684,-7.6626997
			],
			"max":[8.67666054,19.1014175,7.66269922
			]
		},
		{
			"bufferView":18,
			"componentType":5126,
			"count":1752,
			"type":"VEC3",
			"min":[-7.13649178,-15.300684,-7.09898949
			],
			"max":[7.13649178,19.1014175,7.09898996
			]
		},
		{
			"bufferView":19,
			"componentType":5126,
			"count":1752,
			"type":"VEC3",
			"min":[-8.3071022,-15.300684,-6.04305458
			],
			"max":[8.3071022,19.1014175,6.04305458
			]
		},
		{
			"bufferView":20,
			"componentType":5126,
			"count":1752,
			"type":"VEC3",
			"min":[-9.16680908,-15.300684,-4.75810719
			],
			"max":[9.16680908,19.1014175,4.75810766
			]
		},
		{
			"bufferView":21,
			"componentType":5126,
			"count":1752,
			"type":"VEC3",
			"min":[-2.58397031,0,-3.45913553
			],
			"max":[2.58397007,0,3.45913601
			]
		},
		{
			"bufferView":22,
			"componentType":5126,
			"count":1752,
			"type":"VEC3",
			"min":[-7.51118565,-26.4346447,-7.31134081
			],
			"max":[7.51118565,26.4547386,7.32561255
			]
		},
		{
			"bufferView":23,
			"componentType":5126,
			"count":1752,
			"type":"VEC3",
			"min":[-9.83714199,-26.1551857,-7.06404924
			],
			"max":[9.83714104,26.1551857,7.06404877
			]
		},
		{
			"bufferView":24,
			"componentType":5126,
			"count":1752,
			"type":"VEC3",
			"min":[-9.50078011,-26.1551857,-5.40162277
			],
			"max":[9.50078201,26.1551857,5.40162277
			]
		},
		{
			"bufferView":25,
			"componentType":5126,
			"count":1752,
			"type":"VEC3",
			"min":[-9.80103874,-26.1551857,-7.19286251
			],
			"max":[9.80104065,26.1551857,7.19286299
			]
		},
		{
			"bufferView":26,
			"componentType":5126,
			"count":1752,
			"type":"VEC3",
			"min":[-8.9189682,-26.1551857,-7.68518782
			],
			"max":[8.9189682,26.1551857,7.68518972
			]
		},
		{
			"bufferView":27,
			"componentType":5126,
			"count":1752,
			"type":"VEC3",
			"min":[-7.45052814,-26.1551857,-7.25519371
			],
			"max":[7.45052814,26.1551857,7.25519419
			]
		},
		{
			"bufferView":28,
			"componentType":5126,
			"count":1752,
			"type":"VEC3",
			"min":[-8.04734993,-26.1551857,-6.30526638
			],
			"max":[8.04734993,26.1551857,6.30526638
			]
		},
		{
			"bufferView":29,
			"componentType":5126,
			"count":1752,
			"type":"VEC3",
			"min":[-8.9801836,-26.1551857,-5.11953545
			],
			"max":[8.9801836,26.1551857,5.1195364
			]
		},
		{
			"bufferView":30,
			"componentType":5126,
			"count":1752,
			"type":"VEC3",
			"min":[-3.00849152,-2.04430962,-3.89967728
			],
			"max":[3.00849199,0.0701332092,3.89967656
			]
		},
		{
			"bufferView":31,
			"componentType":5126,
			"count":1752,
			"type":"VEC3",
			"min":[-1.96662998,0,-2.77353859
			],
			"max":[1.96663046,0,2.77353692
			]
		},
		{
			"bufferView":32,
			"componentType":5126,
			"count":1752,
			"type":"VEC3",
			"min":[-1.18689537,0,-1.81280184
			],
			"max":[1.18689442,0,1.812801
			]
		},
		{
			"bufferView":33,
			"componentType":5126,
			"count":1752,
			"type":"VEC3",
			"min":[-0.635990143,0,-1.04517603
			],
			"max":[0.635989189,0,1.04517639
			]
		},
		{
			"bufferView":34,
			"componentType":5126,
			"count":1752,
			"type":"VEC3",
			"min":[-0.275167465,0,-0.481340885
			],
			"max":[0.275168419,0,0.481340736
			]
		},
		{
			"bufferView":35,
			"componentType":5126,
			"count":1752,
			"type":"VEC3",
			"min":[-0.0694980621,0,-0.127116203
			],
			"max":[0.0694966316,0,0.127116352
			]
		},
		{
			"bufferView":36,
			"componentType":5126,
			"count":1752,
			"type":"VEC3",
			"min":[0,0,0
			],
			"max":[0,0,0
			]
		},
		{
			"bufferView":37,
			"componentType":5126,
			"count":1752,
			"type":"VEC3",
			"min":[0,0,0
			],
			"max":[0,0,0
			]
		},
		{
			"bufferView":38,
			"componentType":5126,
			"count":1752,
			"type":"VEC3",
			"min":[0,0,0
			],
			"max":[0,0,0
			]
		},
		{
			"bufferView":39,
			"componentType":5126,
			"count":1752,
			"type":"VEC3",
			"min":[0,0,0
			],
			"max":[0,0,0
			]
		},
		{
			"bufferView":40,
			"componentType":5126,
			"count":1752,
			"type":"VEC3",
			"min":[0,0,0
			],
			"max":[0,0,0
			]
		},
		{
			"bufferView":41,
			"componentType":5126,
			"count":1752,
			"type":"VEC3",
			"min":[0,0,0
			],
			"max":[0,0,0
			]
		},
		{
			"bufferView":42,
			"componentType":5126,
			"count":1752,
			"type":"VEC3",
			"min":[0,0,0
			],
			"max":[0,0,0
			]
		},
		{
			"bufferView":43,
			"componentType":5126,
			"count":1752,
			"type":"VEC3",
			"min":[0,0,0
			],
			"max":[0,0,0
			]
		},
		{
			"bufferView":44,
			"componentType":5126,
			"count":1752,
			"type":"VEC3",
			"min":[0,0,0
			],
			"max":[0,0,0
			]
		},
		{
			"bufferView":45,
			"componentType":5126,
			"count":1752,
			"type":"VEC3",
			"min":[0,0,0
			],
			"max":[0,0,0
			]
		},
		{
			"bufferView":46,
			"componentType":5126,
			"count":1752,
			"type":"VEC3",
			"min":[0,0,0
			],
			"max":[0,0,0
			]
		},
		{
			"bufferView":47,
			"componentType":5126,
			"count":1752,
			"type":"VEC3",
			"min":[0,0,0
			],
			"max":[0,0,0
			]
		},
		{
			"bufferView":48,
			"componentType":5126,
			"count":1752,
			"type":"VEC3",
			"min":[0,0,0
			],
			"max":[0,0,0
			]
		},
		{
			"bufferView":49,
			"componentType":5126,
			"count":1752,
			"type":"VEC3",
			"min":[0,0,0
			],
			"max":[0,0,0
			]
		},
		{
			"bufferView":50,
			"componentType":5126,
			"count":1752,
			"type":"VEC3",
			"min":[0,0,0
			],
			"max":[0,0,0
			]
		},
		{
			"bufferView":51,
			"componentType":5126,
			"count":1752,
			"type":"VEC3",
			"min":[0,0,0
			],
			"max":[0,0,0
			]
		},
		{
			"componentType":5126,
			"count":2450,
			"type":"SCALAR",
			"sparse":{
				"count":49,
				"values":{
					"bufferView":53
				},
				"indices":{
					"bufferView":52,
					"componentType":5125
				}
			},
			"min":[0
			],
			"max":[1
			]
		},
		{
			"bufferView":54,
			"componentType":5126,
			"count":50,
			"type":"SCALAR",
			"min":[0
			],
			"max":[1.96000004
			]
		}
	],
	"buffers":[
		{
			"uri":"Logo_01_data.bin",
			"byteLength":1086760,
			"name":"main_buffer"
		}
	],
	"bufferViews":[
		{
			"buffer":0,
			"byteLength":20952,
			"target":34963
		},
		{
			"buffer":0,
			"byteOffset":20952,
			"byteLength":21024,
			"target":34962
		},
		{
			"buffer":0,
			"byteOffset":41976,
			"byteLength":14016,
			"target":34962
		},
		{
			"buffer":0,
			"byteOffset":55992,
			"byteLength":21024,
			"target":34962
		},
		{
			"buffer":0,
			"byteOffset":77016,
			"byteLength":21024,
			"target":34962
		},
		{
			"buffer":0,
			"byteOffset":98040,
			"byteLength":21024,
			"target":34962
		},
		{
			"buffer":0,
			"byteOffset":119064,
			"byteLength":21024,
			"target":34962
		},
		{
			"buffer":0,
			"byteOffset":140088,
			"byteLength":21024,
			"target":34962
		},
		{
			"buffer":0,
			"byteOffset":161112,
			"byteLength":21024,
			"target":34962
		},
		{
			"buffer":0,
			"byteOffset":182136,
			"byteLength":21024,
			"target":34962
		},
		{
			"buffer":0,
			"byteOffset":203160,
			"byteLength":21024,
			"target":34962
		},
		{
			"buffer":0,
			"byteOffset":224184,
			"byteLength":21024,
			"target":34962
		},
		{
			"buffer":0,
			"byteOffset":245208,
			"byteLength":21024,
			"target":34962
		},
		{
			"buffer":0,
			"byteOffset":266232,
			"byteLength":21024,
			"target":34962
		},
		{
			"buffer":0,
			"byteOffset":287256,
			"byteLength":21024,
			"target":34962
		},
		{
			"buffer":0,
			"byteOffset":308280,
			"byteLength":21024,
			"target":34962
		},
		{
			"buffer":0,
			"byteOffset":329304,
			"byteLength":21024,
			"target":34962
		},
		{
			"buffer":0,
			"byteOffset":350328,
			"byteLength":21024,
			"target":34962
		},
		{
			"buffer":0,
			"byteOffset":371352,
			"byteLength":21024,
			"target":34962
		},
		{
			"buffer":0,
			"byteOffset":392376,
			"byteLength":21024,
			"target":34962
		},
		{
			"buffer":0,
			"byteOffset":413400,
			"byteLength":21024,
			"target":34962
		},
		{
			"buffer":0,
			"byteOffset":434424,
			"byteLength":21024,
			"target":34962
		},
		{
			"buffer":0,
			"byteOffset":455448,
			"byteLength":21024,
			"target":34962
		},
		{
			"buffer":0,
			"byteOffset":476472,
			"byteLength":21024,
			"target":34962
		},
		{
			"buffer":0,
			"byteOffset":497496,
			"byteLength":21024,
			"target":34962
		},
		{
			"buffer":0,
			"byteOffset":518520,
			"byteLength":21024,
			"target":34962
		},
		{
			"buffer":0,
			"byteOffset":539544,
			"byteLength":21024,
			"target":34962
		},
		{
			"buffer":0,
			"byteOffset":560568,
			"byteLength":21024,
			"target":34962
		},
		{
			"buffer":0,
			"byteOffset":581592,
			"byteLength":21024,
			"target":34962
		},
		{
			"buffer":0,
			"byteOffset":602616,
			"byteLength":21024,
			"target":34962
		},
		{
			"buffer":0,
			"byteOffset":623640,
			"byteLength":21024,
			"target":34962
		},
		{
			"buffer":0,
			"byteOffset":644664,
			"byteLength":21024,
			"target":34962
		},
		{
			"buffer":0,
			"byteOffset":665688,
			"byteLength":21024,
			"target":34962
		},
		{
			"buffer":0,
			"byteOffset":686712,
			"byteLength":21024,
			"target":34962
		},
		{
			"buffer":0,
			"byteOffset":707736,
			"byteLength":21024,
			"target":34962
		},
		{
			"buffer":0,
			"byteOffset":728760,
			"byteLength":21024,
			"target":34962
		},
		{
			"buffer":0,
			"byteOffset":749784,
			"byteLength":21024,
			"target":34962
		},
		{
			"buffer":0,
			"byteOffset":770808,
			"byteLength":21024,
			"target":34962
		},
		{
			"buffer":0,
			"byteOffset":791832,
			"byteLength":21024,
			"target":34962
		},
		{
			"buffer":0,
			"byteOffset":812856,
			"byteLength":21024,
			"target":34962
		},
		{
			"buffer":0,
			"byteOffset":833880,
			"byteLength":21024,
			"target":34962
		},
		{
			"buffer":0,
			"byteOffset":854904,
			"byteLength":21024,
			"target":34962
		},
		{
			"buffer":0,
			"byteOffset":875928,
			"byteLength":21024,
			"target":34962
		},
		{
			"buffer":0,
			"byteOffset":896952,
			"byteLength":21024,
			"target":34962
		},
		{
			"buffer":0,
			"byteOffset":917976,
			"byteLength":21024,
			"target":34962
		},
		{
			"buffer":0,
			"byteOffset":939000,
			"byteLength":21024,
			"target":34962
		},
		{
			"buffer":0,
			"byteOffset":960024,
			"byteLength":21024,
			"target":34962
		},
		{
			"buffer":0,
			"byteOffset":981048,
			"byteLength":21024,
			"target":34962
		},
		{
			"buffer":0,
			"byteOffset":1002072,
			"byteLength":21024,
			"target":34962
		},
		{
			"buffer":0,
			"byteOffset":1023096,
			"byteLength":21024,
			"target":34962
		},
		{
			"buffer":0,
			"byteOffset":1044120,
			"byteLength":21024,
			"target":34962
		},
		{
			"buffer":0,
			"byteOffset":1065144,
			"byteLength":21024,
			"target":34962
		},
		{
			"buffer":0,
			"byteOffset":1086168,
			"byteLength":196
		},
		{
			"buffer":0,
			"byteOffset":1086364,
			"byteLength":196
		},
		{
			"buffer":0,
			"byteOffset":1086560,
			"byteLength":200
		}
	],
	"nodes":[
		{
			"name":"Path_1_2",
			"mesh":0
		}
	],
	"meshes":[
		{
			"primitives":[
				{
					"attributes":{
						"TEXCOORD_0":2,
						"POSITION":1
					},
					"indices":0,
					"material":0,
					"targets":[
						{
							"POSITION":3
						},
						{
							"POSITION":4
						},
						{
							"POSITION":5
						},
						{
							"POSITION":6
						},
						{
							"POSITION":7
						},
						{
							"POSITION":8
						},
						{
							"POSITION":9
						},
						{
							"POSITION":10
						},
						{
							"POSITION":11
						},
						{
							"POSITION":12
						},
						{
							"POSITION":13
						},
						{
							"POSITION":14
						},
						{
							"POSITION":15
						},
						{
							"POSITION":16
						},
						{
							"POSITION":17
						},
						{
							"POSITION":18
						},
						{
							"POSITION":19
						},
						{
							"POSITION":20
						},
						{
							"POSITION":21
						},
						{
							"POSITION":22
						},
						{
							"POSITION":23
						},
						{
							"POSITION":24
						},
						{
							"POSITION":25
						},
						{
							"POSITION":26
						},
						{
							"POSITION":27
						},
						{
							"POSITION":28
						},
						{
							"POSITION":29
						},
						{
							"POSITION":30
						},
						{
							"POSITION":31
						},
						{
							"POSITION":32
						},
						{
							"POSITION":33
						},
						{
							"POSITION":34
						},
						{
							"POSITION":35
						},
						{
							"POSITION":36
						},
						{
							"POSITION":37
						},
						{
							"POSITION":38
						},
						{
							"POSITION":39
						},
						{
							"POSITION":40
						},
						{
							"POSITION":41
						},
						{
							"POSITION":42
						},
						{
							"POSITION":43
						},
						{
							"POSITION":44
						},
						{
							"POSITION":45
						},
						{
							"POSITION":46
						},
						{
							"POSITION":47
						},
						{
							"POSITION":48
						},
						{
							"POSITION":49
						},
						{
							"POSITION":50
						},
						{
							"POSITION":51
						}
					]
				}
			],
			"name":"merge1",
			"extras":{
				"targetNames":["","","","","","","","","","","","","","","","","","","","","","","","","","","","","","","","","","","","","","","","","","","","","","","","",""
				]
			}
		}
	],
	"materials":[
		{
			"name":"ramp_01",
			"pbrMetallicRoughness":{
				"metallicFactor":0,
				"roughnessFactor":0.800000012,
				"baseColorTexture":{
					"index":0
				}
			}
		}
	],
	"scenes":[
		{
			"nodes":[0
			]
		}
	],
	"textures":[
		{
			"source":0
		}
	],
	"images":[
		{
			"uri":"Ramp_01.png",
			"mimeType":"image/png"
		}
	],
	"scene":0
}
