{
	"asset":{
		"version":"2.0",
		"generator":"Houdini GLTF 2.0 Exporter"
	},
	"animations":[
		{
			"channels":[
				{
					"target":{
						"node":0,
						"path":"weights"
					},
					"sampler":0
				}
			],
			"samplers":[
				{
					"input":45,
					"interpolation":"LINEAR",
					"output":44
				}
			]
		}
	],
	"accessors":[
		{
			"bufferView":0,
			"componentType":5123,
			"count":564,
			"type":"SCALAR",
			"min":[0
			],
			"max":[119
			]
		},
		{
			"bufferView":1,
			"componentType":5126,
			"count":120,
			"type":"VEC3",
			"min":[-2.24250722,0,1.14999998
			],
			"max":[-0.942507267,3.20000005,2.45000005
			]
		},
		{
			"bufferView":2,
			"componentType":5126,
			"count":120,
			"type":"VEC2",
			"min":[-1.74250722,0.119999945
			],
			"max":[0,1
			]
		},
		{
			"bufferView":3,
			"componentType":5123,
			"count":564,
			"type":"SCALAR",
			"min":[0
			],
			"max":[119
			]
		},
		{
			"bufferView":4,
			"componentType":5126,
			"count":120,
			"type":"VEC3",
			"min":[-0.649999976,0,-0.649999976
			],
			"max":[0.649999976,5.4000001,0.649999976
			]
		},
		{
			"bufferView":5,
			"componentType":5126,
			"count":120,
			"type":"VEC2",
			"min":[-0.149999976,0.0423728228
			],
			"max":[1.14999998,1
			]
		},
		{
			"bufferView":6,
			"componentType":5126,
			"count":120,
			"type":"VEC3",
			"min":[0,0,0
			],
			"max":[0,0,0
			]
		},
		{
			"bufferView":7,
			"componentType":5126,
			"count":120,
			"type":"VEC3",
			"min":[0,-0.0264616013,0
			],
			"max":[0,0,0
			]
		},
		{
			"bufferView":8,
			"componentType":5126,
			"count":120,
			"type":"VEC3",
			"min":[0,0,0
			],
			"max":[0,0,0
			]
		},
		{
			"bufferView":9,
			"componentType":5126,
			"count":120,
			"type":"VEC3",
			"min":[0,-0.101997375,0
			],
			"max":[0,0,0
			]
		},
		{
			"bufferView":10,
			"componentType":5126,
			"count":120,
			"type":"VEC3",
			"min":[0,0,0
			],
			"max":[0,0,0
			]
		},
		{
			"bufferView":11,
			"componentType":5126,
			"count":120,
			"type":"VEC3",
			"min":[0,-0.220834255,0
			],
			"max":[0,0,0
			]
		},
		{
			"bufferView":12,
			"componentType":5126,
			"count":120,
			"type":"VEC3",
			"min":[0,0,0
			],
			"max":[0,0,0
			]
		},
		{
			"bufferView":13,
			"componentType":5126,
			"count":120,
			"type":"VEC3",
			"min":[0,-0.377197742,0
			],
			"max":[0,0,0
			]
		},
		{
			"bufferView":14,
			"componentType":5126,
			"count":120,
			"type":"VEC3",
			"min":[0,0,0
			],
			"max":[0,0,0
			]
		},
		{
			"bufferView":15,
			"componentType":5126,
			"count":120,
			"type":"VEC3",
			"min":[0,-0.565315723,0
			],
			"max":[0,0,0
			]
		},
		{
			"bufferView":16,
			"componentType":5126,
			"count":120,
			"type":"VEC3",
			"min":[0,0,0
			],
			"max":[0,0,0
			]
		},
		{
			"bufferView":17,
			"componentType":5126,
			"count":120,
			"type":"VEC3",
			"min":[0,-0.779414177,0
			],
			"max":[0,0,0
			]
		},
		{
			"bufferView":18,
			"componentType":5126,
			"count":120,
			"type":"VEC3",
			"min":[0,0,0
			],
			"max":[0,0,0
			]
		},
		{
			"bufferView":19,
			"componentType":5126,
			"count":120,
			"type":"VEC3",
			"min":[0,-1.01371908,0
			],
			"max":[0,0,0
			]
		},
		{
			"bufferView":20,
			"componentType":5126,
			"count":120,
			"type":"VEC3",
			"min":[0,0,0
			],
			"max":[0,0,0
			]
		},
		{
			"bufferView":21,
			"componentType":5126,
			"count":120,
			"type":"VEC3",
			"min":[0,-1.26245832,0
			],
			"max":[0,0,0
			]
		},
		{
			"bufferView":22,
			"componentType":5126,
			"count":120,
			"type":"VEC3",
			"min":[0,0,0
			],
			"max":[0,0,0
			]
		},
		{
			"bufferView":23,
			"componentType":5126,
			"count":120,
			"type":"VEC3",
			"min":[0,-1.51985741,0
			],
			"max":[0,0,0
			]
		},
		{
			"bufferView":24,
			"componentType":5126,
			"count":120,
			"type":"VEC3",
			"min":[0,0,0
			],
			"max":[0,0,0
			]
		},
		{
			"bufferView":25,
			"componentType":5126,
			"count":120,
			"type":"VEC3",
			"min":[0,-1.78014326,0
			],
			"max":[0,0,0
			]
		},
		{
			"bufferView":26,
			"componentType":5126,
			"count":120,
			"type":"VEC3",
			"min":[0,0,0
			],
			"max":[0,0,0
			]
		},
		{
			"bufferView":27,
			"componentType":5126,
			"count":120,
			"type":"VEC3",
			"min":[0,-2.03754234,0
			],
			"max":[0,0,0
			]
		},
		{
			"bufferView":28,
			"componentType":5126,
			"count":120,
			"type":"VEC3",
			"min":[0,0,0
			],
			"max":[0,0,0
			]
		},
		{
			"bufferView":29,
			"componentType":5126,
			"count":120,
			"type":"VEC3",
			"min":[0,-2.28628111,0
			],
			"max":[0,0,0
			]
		},
		{
			"bufferView":30,
			"componentType":5126,
			"count":120,
			"type":"VEC3",
			"min":[0,0,0
			],
			"max":[0,0,0
			]
		},
		{
			"bufferView":31,
			"componentType":5126,
			"count":120,
			"type":"VEC3",
			"min":[0,-2.52058649,0
			],
			"max":[0,0,0
			]
		},
		{
			"bufferView":32,
			"componentType":5126,
			"count":120,
			"type":"VEC3",
			"min":[0,0,0
			],
			"max":[0,0,0
			]
		},
		{
			"bufferView":33,
			"componentType":5126,
			"count":120,
			"type":"VEC3",
			"min":[0,-2.73468471,0
			],
			"max":[0,0,0
			]
		},
		{
			"bufferView":34,
			"componentType":5126,
			"count":120,
			"type":"VEC3",
			"min":[0,0,0
			],
			"max":[0,0,0
			]
		},
		{
			"bufferView":35,
			"componentType":5126,
			"count":120,
			"type":"VEC3",
			"min":[0,-2.92280245,0
			],
			"max":[0,0,0
			]
		},
		{
			"bufferView":36,
			"componentType":5126,
			"count":120,
			"type":"VEC3",
			"min":[0,0,0
			],
			"max":[0,0,0
			]
		},
		{
			"bufferView":37,
			"componentType":5126,
			"count":120,
			"type":"VEC3",
			"min":[0,-3.07916641,0
			],
			"max":[0,0,0
			]
		},
		{
			"bufferView":38,
			"componentType":5126,
			"count":120,
			"type":"VEC3",
			"min":[0,0,0
			],
			"max":[0,0,0
			]
		},
		{
			"bufferView":39,
			"componentType":5126,
			"count":120,
			"type":"VEC3",
			"min":[0,-3.19800305,0
			],
			"max":[0,0,0
			]
		},
		{
			"bufferView":40,
			"componentType":5126,
			"count":120,
			"type":"VEC3",
			"min":[0,0,0
			],
			"max":[0,0,0
			]
		},
		{
			"bufferView":41,
			"componentType":5126,
			"count":120,
			"type":"VEC3",
			"min":[0,-3.27353883,0
			],
			"max":[0,0,0
			]
		},
		{
			"bufferView":42,
			"componentType":5126,
			"count":120,
			"type":"VEC3",
			"min":[0,0,0
			],
			"max":[0,0,0
			]
		},
		{
			"bufferView":43,
			"componentType":5126,
			"count":120,
			"type":"VEC3",
			"min":[0,-3.30000043,0
			],
			"max":[0,0,0
			]
		},
		{
			"componentType":5126,
			"count":380,
			"type":"SCALAR",
			"sparse":{
				"count":19,
				"values":{
					"bufferView":45
				},
				"indices":{
					"bufferView":44,
					"componentType":5125
				}
			},
			"min":[0
			],
			"max":[1
			]
		},
		{
			"bufferView":46,
			"componentType":5126,
			"count":20,
			"type":"SCALAR",
			"min":[0
			],
			"max":[0.633333325
			]
		}
	],
	"buffers":[
		{
			"uri":"gltf_test_07_data.bin",
			"byteLength":62008,
			"name":"main_buffer"
		}
	],
	"bufferViews":[
		{
			"buffer":0,
			"byteLength":1128,
			"target":34963
		},
		{
			"buffer":0,
			"byteOffset":1128,
			"byteLength":1440,
			"target":34962
		},
		{
			"buffer":0,
			"byteOffset":2568,
			"byteLength":960,
			"target":34962
		},
		{
			"buffer":0,
			"byteOffset":3528,
			"byteLength":1128,
			"target":34963
		},
		{
			"buffer":0,
			"byteOffset":4656,
			"byteLength":1440,
			"target":34962
		},
		{
			"buffer":0,
			"byteOffset":6096,
			"byteLength":960,
			"target":34962
		},
		{
			"buffer":0,
			"byteOffset":7056,
			"byteLength":1440,
			"target":34962
		},
		{
			"buffer":0,
			"byteOffset":8496,
			"byteLength":1440,
			"target":34962
		},
		{
			"buffer":0,
			"byteOffset":9936,
			"byteLength":1440,
			"target":34962
		},
		{
			"buffer":0,
			"byteOffset":11376,
			"byteLength":1440,
			"target":34962
		},
		{
			"buffer":0,
			"byteOffset":12816,
			"byteLength":1440,
			"target":34962
		},
		{
			"buffer":0,
			"byteOffset":14256,
			"byteLength":1440,
			"target":34962
		},
		{
			"buffer":0,
			"byteOffset":15696,
			"byteLength":1440,
			"target":34962
		},
		{
			"buffer":0,
			"byteOffset":17136,
			"byteLength":1440,
			"target":34962
		},
		{
			"buffer":0,
			"byteOffset":18576,
			"byteLength":1440,
			"target":34962
		},
		{
			"buffer":0,
			"byteOffset":20016,
			"byteLength":1440,
			"target":34962
		},
		{
			"buffer":0,
			"byteOffset":21456,
			"byteLength":1440,
			"target":34962
		},
		{
			"buffer":0,
			"byteOffset":22896,
			"byteLength":1440,
			"target":34962
		},
		{
			"buffer":0,
			"byteOffset":24336,
			"byteLength":1440,
			"target":34962
		},
		{
			"buffer":0,
			"byteOffset":25776,
			"byteLength":1440,
			"target":34962
		},
		{
			"buffer":0,
			"byteOffset":27216,
			"byteLength":1440,
			"target":34962
		},
		{
			"buffer":0,
			"byteOffset":28656,
			"byteLength":1440,
			"target":34962
		},
		{
			"buffer":0,
			"byteOffset":30096,
			"byteLength":1440,
			"target":34962
		},
		{
			"buffer":0,
			"byteOffset":31536,
			"byteLength":1440,
			"target":34962
		},
		{
			"buffer":0,
			"byteOffset":32976,
			"byteLength":1440,
			"target":34962
		},
		{
			"buffer":0,
			"byteOffset":34416,
			"byteLength":1440,
			"target":34962
		},
		{
			"buffer":0,
			"byteOffset":35856,
			"byteLength":1440,
			"target":34962
		},
		{
			"buffer":0,
			"byteOffset":37296,
			"byteLength":1440,
			"target":34962
		},
		{
			"buffer":0,
			"byteOffset":38736,
			"byteLength":1440,
			"target":34962
		},
		{
			"buffer":0,
			"byteOffset":40176,
			"byteLength":1440,
			"target":34962
		},
		{
			"buffer":0,
			"byteOffset":41616,
			"byteLength":1440,
			"target":34962
		},
		{
			"buffer":0,
			"byteOffset":43056,
			"byteLength":1440,
			"target":34962
		},
		{
			"buffer":0,
			"byteOffset":44496,
			"byteLength":1440,
			"target":34962
		},
		{
			"buffer":0,
			"byteOffset":45936,
			"byteLength":1440,
			"target":34962
		},
		{
			"buffer":0,
			"byteOffset":47376,
			"byteLength":1440,
			"target":34962
		},
		{
			"buffer":0,
			"byteOffset":48816,
			"byteLength":1440,
			"target":34962
		},
		{
			"buffer":0,
			"byteOffset":50256,
			"byteLength":1440,
			"target":34962
		},
		{
			"buffer":0,
			"byteOffset":51696,
			"byteLength":1440,
			"target":34962
		},
		{
			"buffer":0,
			"byteOffset":53136,
			"byteLength":1440,
			"target":34962
		},
		{
			"buffer":0,
			"byteOffset":54576,
			"byteLength":1440,
			"target":34962
		},
		{
			"buffer":0,
			"byteOffset":56016,
			"byteLength":1440,
			"target":34962
		},
		{
			"buffer":0,
			"byteOffset":57456,
			"byteLength":1440,
			"target":34962
		},
		{
			"buffer":0,
			"byteOffset":58896,
			"byteLength":1440,
			"target":34962
		},
		{
			"buffer":0,
			"byteOffset":60336,
			"byteLength":1440,
			"target":34962
		},
		{
			"buffer":0,
			"byteOffset":61776,
			"byteLength":76
		},
		{
			"buffer":0,
			"byteOffset":61852,
			"byteLength":76
		},
		{
			"buffer":0,
			"byteOffset":61928,
			"byteLength":80
		}
	],
	"nodes":[
		{
			"name":"Graf",
			"mesh":0
		}
	],
	"meshes":[
		{
			"primitives":[
				{
					"attributes":{
						"TEXCOORD_0":2,
						"POSITION":1
					},
					"indices":0,
					"material":0,
					"targets":[
						{
							"POSITION":6
						},
						{
							"POSITION":8
						},
						{
							"POSITION":10
						},
						{
							"POSITION":12
						},
						{
							"POSITION":14
						},
						{
							"POSITION":16
						},
						{
							"POSITION":18
						},
						{
							"POSITION":20
						},
						{
							"POSITION":22
						},
						{
							"POSITION":24
						},
						{
							"POSITION":26
						},
						{
							"POSITION":28
						},
						{
							"POSITION":30
						},
						{
							"POSITION":32
						},
						{
							"POSITION":34
						},
						{
							"POSITION":36
						},
						{
							"POSITION":38
						},
						{
							"POSITION":40
						},
						{
							"POSITION":42
						}
					]
				},
				{
					"attributes":{
						"TEXCOORD_0":5,
						"POSITION":4
					},
					"indices":3,
					"material":1,
					"targets":[
						{
							"POSITION":7
						},
						{
							"POSITION":9
						},
						{
							"POSITION":11
						},
						{
							"POSITION":13
						},
						{
							"POSITION":15
						},
						{
							"POSITION":17
						},
						{
							"POSITION":19
						},
						{
							"POSITION":21
						},
						{
							"POSITION":23
						},
						{
							"POSITION":25
						},
						{
							"POSITION":27
						},
						{
							"POSITION":29
						},
						{
							"POSITION":31
						},
						{
							"POSITION":33
						},
						{
							"POSITION":35
						},
						{
							"POSITION":37
						},
						{
							"POSITION":39
						},
						{
							"POSITION":41
						},
						{
							"POSITION":43
						}
					]
				}
			],
			"name":"merge1",
			"extras":{
				"targetNames":["","","","","","","","","","","","","","","","","","",""
				]
			}
		}
	],
	"materials":[
		{
			"name":"ramp_01",
			"pbrMetallicRoughness":{
				"metallicFactor":0,
				"roughnessFactor":0.800000012,
				"baseColorTexture":{
					"index":0
				}
			}
		},
		{
			"name":"ramp_02",
			"pbrMetallicRoughness":{
				"metallicFactor":0,
				"roughnessFactor":0.800000012,
				"baseColorTexture":{
					"index":1
				}
			}
		}
	],
	"scenes":[
		{
			"nodes":[0
			]
		}
	],
	"textures":[
		{
			"source":0
		},
		{
			"source":1
		}
	],
	"images":[
		{
			"uri":"Ramp_01.png",
			"mimeType":"image/png"
		},
		{
			"uri":"Ramp_02.png",
			"mimeType":"image/png"
		}
	],
	"scene":0
}
